<svg width="794" height="794" xmlns="http://www.w3.org/2000/svg" xmlns:xlink="http://www.w3.org/1999/xlink" xml:space="preserve" overflow="hidden"><defs><clipPath id="clip0"><rect x="0" y="164" width="794" height="794"/></clipPath></defs><g clip-path="url(#clip0)" transform="matrix(1 0 0 1 0 -164)"><path d="M697.015 291.482 96.9854 291.482C43.51 291.482 0 334.992 0 388.468L0 733.532C0 787.008 43.51 830.518 96.9854 830.518L697.015 830.518C750.49 830.518 794 787.008 794 733.532L794 388.478C794.011 334.992 750.5 291.482 697.015 291.482ZM649.624 354.754 397 517.511 144.376 354.754 649.624 354.754ZM697.015 767.256 96.9854 767.256C78.394 767.256 63.272 752.124 63.272 733.543L63.272 390.271 377.481 592.32C377.902 592.583 378.356 592.763 378.788 593.005 379.242 593.258 379.706 593.501 380.17 593.733 382.606 594.988 385.115 596 387.678 596.664 387.942 596.738 388.205 596.77 388.469 596.833 391.284 597.497 394.132 597.909 396.979 597.909 396.989 597.909 397 597.909 397 597.909 397.021 597.909 397.032 597.909 397.042 597.909 399.889 597.909 402.737 597.508 405.552 596.833 405.816 596.77 406.08 596.738 406.343 596.664 408.906 596 411.405 594.988 413.851 593.733 414.315 593.501 414.779 593.258 415.233 593.005 415.665 592.763 416.119 592.583 416.54 592.32L730.749 390.271 730.749 733.532C730.739 752.124 715.606 767.256 697.015 767.256Z" fill="#FFFFFF"/></g></svg>