<svg width="19" height="18" xmlns="http://www.w3.org/2000/svg" xmlns:xlink="http://www.w3.org/1999/xlink" xml:space="preserve" overflow="hidden"><defs><clipPath id="clip0"><rect x="762" y="63" width="19" height="18"/></clipPath></defs><g clip-path="url(#clip0)" transform="translate(-762 -63)"><path d="M4.18994 5.79077 0.576406 5.79077C0.416032 5.79077 0.286084 5.92078 0.286084 6.0811L0.286084 17.6898C0.286084 17.8502 0.416032 17.9801 0.576406 17.9801L4.18994 17.9801C4.35031 17.9801 4.48026 17.8502 4.48026 17.6898L4.48026 6.0811C4.48026 5.92078 4.35031 5.79077 4.18994 5.79077Z" fill="#FFFFFF" transform="matrix(1.05556 0 0 1 762 63)"/><path d="M2.38448 0.0198C1.06966 0.0198 0 1.0883 0 2.40166 0 3.71561 1.06966 4.78452 2.38448 4.78452 3.69825 4.78452 4.76704 3.71555 4.76704 2.40166 4.7671 1.0883 3.69825 0.0198 2.38448 0.0198Z" fill="#FFFFFF" transform="matrix(1.05556 0 0 1 762 63)"/><path d="M13.3812 5.50225C11.9299 5.50225 10.857 6.12615 10.2063 6.83506L10.2063 6.0811C10.2063 5.92078 10.0763 5.79077 9.91597 5.79077L6.45538 5.79077C6.29501 5.79077 6.16506 5.92078 6.16506 6.0811L6.16506 17.6898C6.16506 17.8502 6.29501 17.9801 6.45538 17.9801L10.061 17.9801C10.2214 17.9801 10.3513 17.8502 10.3513 17.6898L10.3513 11.9462C10.3513 10.0107 10.8771 9.2567 12.2262 9.2567 13.6956 9.2567 13.8124 10.4655 13.8124 12.0458L13.8124 17.6899C13.8124 17.8503 13.9423 17.9802 14.1027 17.9802L17.7097 17.9802C17.8701 17.9802 18 17.8503 18 17.6899L18 11.3223C18 8.44432 17.4512 5.50225 13.3812 5.50225Z" fill="#FFFFFF" transform="matrix(1.05556 0 0 1 762 63)"/></g></svg>